<svg xmlns="http://www.w3.org/2000/svg" xmlns:xlink="http://www.w3.org/1999/xlink" width="500" zoomAndPan="magnify" viewBox="0 0 375 374.999991" height="500" preserveAspectRatio="xMidYMid meet" version="1.0"><defs><clipPath id="420485e1ec"><path d="M 20.777344 20.53125 L 354.222656 20.53125 L 354.222656 354 L 20.777344 354 Z M 20.777344 20.53125 " clip-rule="nonzero"/></clipPath><clipPath id="23ec0332fd"><path d="M 187.5 20.53125 C 95.421875 20.53125 20.777344 95.285156 20.777344 187.5 C 20.777344 279.714844 95.421875 354.46875 187.5 354.46875 C 279.578125 354.46875 354.222656 279.714844 354.222656 187.5 C 354.222656 95.285156 279.578125 20.53125 187.5 20.53125 Z M 187.5 20.53125 " clip-rule="nonzero"/></clipPath><clipPath id="808cfc6682"><path d="M 47 47 L 328 47 L 328 328 L 47 328 Z M 47 47 " clip-rule="nonzero"/></clipPath><clipPath id="6aba7e7563"><path d="M 181.304688 32.199219 L 342.570312 177.035156 L 193.207031 343.339844 L 31.945312 198.503906 Z M 181.304688 32.199219 " clip-rule="nonzero"/></clipPath><clipPath id="1833c7b566"><path d="M 209.203125 57.257812 L 314.667969 151.976562 C 322.070312 158.625 326.523438 167.9375 327.058594 177.867188 C 327.589844 187.800781 324.15625 197.535156 317.511719 204.933594 L 218.75 314.898438 C 212.105469 322.296875 202.792969 326.753906 192.859375 327.289062 C 182.929688 327.820312 173.191406 324.386719 165.792969 317.742188 L 60.328125 223.019531 C 52.929688 216.375 48.472656 207.0625 47.941406 197.132812 C 47.40625 187.199219 50.839844 177.464844 57.488281 170.0625 L 156.246094 60.101562 C 162.894531 52.699219 172.207031 48.246094 182.136719 47.710938 C 192.070312 47.179688 201.804688 50.613281 209.203125 57.257812 Z M 209.203125 57.257812 " clip-rule="nonzero"/></clipPath><clipPath id="d8bb297916"><path d="M 114.367188 129.027344 L 258.722656 129.027344 L 258.722656 214.679688 L 114.367188 214.679688 Z M 114.367188 129.027344 " clip-rule="nonzero"/></clipPath><clipPath id="d60588f9ab"><path d="M 222 133 L 303 133 L 303 215 L 222 215 Z M 222 133 " clip-rule="nonzero"/></clipPath><clipPath id="ff608ac3d2"><path d="M 265.460938 133.941406 L 302.964844 155.597656 L 259.660156 230.605469 L 222.152344 208.953125 Z M 265.460938 133.941406 " clip-rule="nonzero"/></clipPath><clipPath id="c4455a6f1e"><path d="M 265.460938 133.941406 L 302.964844 155.597656 L 259.660156 230.605469 L 222.152344 208.953125 Z M 265.460938 133.941406 " clip-rule="nonzero"/></clipPath><clipPath id="f44aba5996"><path d="M 151.578125 219.859375 L 231.9375 219.859375 L 231.9375 312 L 151.578125 312 Z M 151.578125 219.859375 " clip-rule="nonzero"/></clipPath><clipPath id="4a7afddaaf"><path d="M 72 135 L 153 135 L 153 217 L 72 217 Z M 72 135 " clip-rule="nonzero"/></clipPath><clipPath id="566dbf3bbf"><path d="M 72.035156 157.519531 L 109.539062 135.867188 L 152.847656 210.878906 L 115.339844 232.53125 Z M 72.035156 157.519531 " clip-rule="nonzero"/></clipPath><clipPath id="130dccad12"><path d="M 109.539062 135.867188 L 72.035156 157.519531 L 115.339844 232.53125 L 152.847656 210.878906 Z M 109.539062 135.867188 " clip-rule="nonzero"/></clipPath></defs><g clip-path="url(#420485e1ec)"><g clip-path="url(#23ec0332fd)"><path fill="#ffffff" d="M 20.777344 20.53125 L 354.222656 20.53125 L 354.222656 353.976562 L 20.777344 353.976562 Z M 20.777344 20.53125 " fill-opacity="1" fill-rule="nonzero"/></g></g><g clip-path="url(#808cfc6682)"><g clip-path="url(#6aba7e7563)"><g clip-path="url(#1833c7b566)"><path fill="#000000" d="M 181.304688 32.199219 L 342.570312 177.035156 L 193.773438 342.710938 L 32.507812 197.875 Z M 181.304688 32.199219 " fill-opacity="1" fill-rule="nonzero"/></g></g></g><g clip-path="url(#d8bb297916)"><path fill="#ffffff" d="M 114.421875 129.027344 L 164.417969 214.738281 L 186.542969 176.597656 L 208.757812 214.738281 L 258.667969 129.027344 L 226.445312 129.027344 L 203.277344 168.925781 L 207.980469 177.03125 L 231.144531 137.304688 L 244.386719 137.304688 L 208.757812 198.351562 L 191.332031 168.492188 L 214.328125 129.027344 L 204.75 129.027344 L 186.542969 160.300781 L 168.339844 129.027344 L 158.847656 129.027344 L 181.84375 168.492188 L 164.417969 198.351562 L 128.789062 137.304688 L 140.902344 137.304688 L 164.070312 177.03125 L 168.859375 168.925781 L 145.605469 129.027344 Z M 114.421875 129.027344 " fill-opacity="1" fill-rule="nonzero"/></g><g clip-path="url(#d60588f9ab)"><g clip-path="url(#ff608ac3d2)"><g clip-path="url(#c4455a6f1e)"><path fill="#ffffff" d="M 302.964844 155.597656 L 281.3125 193.101562 C 269.371094 213.785156 242.835938 220.894531 222.152344 208.953125 L 227.433594 199.804688 C 243.070312 208.835938 263.136719 203.457031 272.164062 187.820312 L 288.539062 159.460938 L 260.179688 143.089844 L 265.460938 133.941406 Z M 264.847656 183.59375 L 276.996094 162.554688 L 255.953125 150.40625 L 250.671875 159.554688 L 262.566406 166.421875 L 255.699219 178.316406 C 251.914062 184.871094 243.496094 187.128906 236.941406 183.339844 L 231.660156 192.488281 C 243.261719 199.1875 258.148438 195.199219 264.847656 183.59375 Z M 264.847656 183.59375 " fill-opacity="1" fill-rule="nonzero"/></g></g></g><path fill="#ffffff" d="M 193.371094 249.082031 C 193.246094 248.851562 193.097656 248.613281 193.074219 248.554688 C 192.667969 247.652344 192.398438 246.679688 192.257812 245.699219 C 191.871094 243.023438 192.363281 240.527344 193.382812 238.046875 C 193.691406 237.300781 194.03125 236.566406 194.355469 235.828125 C 194.394531 235.738281 194.558594 235.191406 194.6875 235.1875 C 194.78125 235.179688 194.84375 235.976562 194.851562 236.039062 C 194.980469 237.035156 195.136719 238.035156 195.335938 239.015625 C 195.890625 241.753906 196.371094 244.582031 195.796875 247.359375 C 195.601562 248.304688 195.21875 249.574219 194.304688 250.117188 C 193.742188 255.152344 191.535156 259.703125 190.011719 264.5 C 190.230469 264.078125 190.460938 263.660156 190.699219 263.253906 C 192.835938 259.652344 195.824219 256.945312 199.550781 255.085938 C 200.359375 254.683594 201.171875 254.300781 202 253.941406 C 202.09375 253.902344 202.679688 253.570312 202.765625 253.671875 C 202.890625 253.816406 202.417969 254.65625 202.355469 254.796875 C 201.828125 256.007812 201.257812 257.199219 200.722656 258.40625 C 199.015625 262.285156 195.941406 265.230469 192.386719 267.425781 C 191.492188 267.976562 190.03125 269.035156 188.855469 269.109375 C 188.074219 273.566406 188.296875 278.027344 189.253906 282.429688 C 189.273438 281.824219 189.3125 281.21875 189.359375 280.613281 C 189.558594 278.074219 189.933594 274.734375 191.535156 272.539062 C 191.40625 272.410156 191.296875 272.257812 191.214844 272.082031 C 190.859375 271.300781 191.203125 270.378906 191.984375 270.019531 C 192.765625 269.664062 193.6875 270.007812 194.046875 270.789062 C 194.40625 271.570312 194.0625 272.492188 193.28125 272.851562 C 193.019531 272.96875 192.742188 273.011719 192.476562 272.984375 C 190.871094 275.015625 190.570312 278.257812 190.378906 280.695312 C 190.351562 281.023438 190.332031 281.351562 190.3125 281.679688 C 190.957031 278.515625 192.171875 275.386719 194.191406 272.859375 C 194.46875 272.515625 195.964844 270.402344 196.585938 270.585938 C 196.746094 270.632812 196.546875 271.480469 196.535156 271.597656 C 196.40625 272.714844 196.394531 273.851562 196.402344 274.972656 C 196.421875 278.855469 195.496094 282.148438 193.160156 285.335938 C 192.488281 286.253906 191.410156 286.863281 190.730469 287.742188 C 191.417969 289.875 192.15625 291.988281 192.851562 294.117188 C 192.945312 293.808594 193.042969 293.503906 193.140625 293.195312 C 193.726562 291.359375 194.53125 289.628906 195.671875 288.074219 C 195.699219 288.035156 195.730469 288.003906 195.765625 287.976562 C 195.742188 287.929688 195.714844 287.886719 195.695312 287.835938 C 195.335938 287.054688 195.679688 286.132812 196.460938 285.773438 C 197.242188 285.417969 198.167969 285.761719 198.523438 286.542969 C 198.882812 287.324219 198.539062 288.246094 197.757812 288.605469 C 197.351562 288.789062 196.910156 288.785156 196.527344 288.632812 C 196.515625 288.648438 196.507812 288.664062 196.496094 288.675781 C 195.421875 290.144531 194.664062 291.773438 194.113281 293.507812 C 193.921875 294.109375 193.734375 294.71875 193.5625 295.328125 C 193.535156 295.417969 193.554688 295.558594 193.558594 295.6875 C 193.558594 295.863281 193.546875 296.027344 193.511719 296.144531 L 193.507812 296.160156 C 194.140625 298.203125 194.707031 300.269531 195.132812 302.382812 C 195.398438 303.703125 195.574219 305.042969 195.753906 306.378906 C 195.785156 306.621094 195.925781 307.101562 195.929688 307.480469 C 195.933594 307.757812 195.871094 307.996094 195.757812 308.160156 C 195.601562 308.394531 195.28125 308.457031 195.046875 308.296875 C 194.824219 308.144531 194.757812 307.839844 194.898438 307.609375 C 194.898438 307.578125 194.902344 307.371094 194.882812 307.246094 C 194.839844 306.964844 194.765625 306.679688 194.742188 306.515625 C 194.566406 305.203125 194.390625 303.882812 194.128906 302.582031 C 193.753906 300.71875 193.269531 298.894531 192.722656 297.085938 C 192.433594 296.855469 192.117188 296.625 192.089844 296.605469 C 190.742188 295.664062 189.167969 294.960938 187.640625 294.378906 C 184.046875 293.019531 181.496094 291.011719 180.21875 287.28125 C 180.023438 286.714844 179.160156 284.621094 179.5625 284.003906 C 179.589844 283.960938 180.335938 284.546875 180.390625 284.582031 C 181.34375 285.25 182.285156 285.929688 183.214844 286.632812 C 185.335938 288.246094 187.359375 289.929688 189.382812 291.664062 C 190.195312 292.359375 190.976562 292.980469 191.644531 293.710938 C 190.820312 291.230469 189.953125 288.757812 189.191406 286.25 C 188.359375 283.511719 187.78125 280.746094 187.519531 277.960938 C 187.222656 277.898438 186.699219 277.863281 186.507812 277.800781 C 185.589844 277.507812 184.714844 277.101562 183.878906 276.621094 C 180.339844 274.578125 177.839844 271.066406 176.542969 267.238281 C 176.117188 265.992188 175.75 264.714844 175.515625 263.417969 C 175.484375 263.242188 175.261719 262.394531 175.515625 262.265625 C 175.640625 262.199219 176.183594 263.0625 176.25 263.148438 C 177.007812 264.09375 177.921875 264.871094 178.789062 265.710938 C 181.511719 268.347656 184.273438 271.140625 186.351562 274.355469 C 186.183594 273.6875 186.015625 273.023438 185.832031 272.363281 C 184.992188 269.351562 184.046875 266.476562 182.1875 263.9375 C 182.183594 263.929688 182.175781 263.921875 182.171875 263.914062 C 181.4375 264.144531 180.625 263.796875 180.292969 263.074219 C 179.9375 262.296875 180.28125 261.371094 181.0625 261.011719 C 181.84375 260.65625 182.765625 261 183.125 261.78125 C 183.359375 262.296875 183.292969 262.871094 182.992188 263.308594 C 183 263.316406 183.007812 263.324219 183.015625 263.335938 C 184.949219 265.972656 185.945312 268.957031 186.816406 272.089844 C 187.011719 272.785156 187.1875 273.488281 187.363281 274.191406 C 187.390625 271.738281 187.6875 269.28125 188.289062 266.828125 C 188.761719 264.90625 189.40625 263.042969 190.082031 261.191406 C 190.066406 261.0625 190.058594 260.742188 190.015625 260.613281 C 189.875 260.1875 189.707031 259.765625 189.515625 259.359375 C 188.964844 258.210938 188.25 257.144531 187.53125 256.089844 C 185.179688 252.644531 183.496094 249.503906 183.167969 245.238281 C 183.09375 244.273438 183.0625 243.296875 183.160156 242.335938 C 183.171875 242.21875 183.183594 241.472656 183.324219 241.410156 C 183.386719 241.378906 183.976562 242.398438 184.019531 242.460938 C 184.78125 243.578125 185.617188 244.652344 186.433594 245.730469 C 188.3125 248.214844 189.105469 250.996094 189.890625 253.964844 C 190.113281 254.804688 190.332031 255.582031 190.511719 256.339844 C 190.570312 255.554688 190.609375 254.765625 190.605469 253.972656 C 190.589844 250.699219 190.234375 247.453125 189.222656 244.335938 C 188.628906 244.335938 188.0625 244 187.800781 243.425781 C 187.441406 242.644531 187.785156 241.722656 188.566406 241.363281 C 189.347656 241.003906 190.273438 241.347656 190.632812 242.128906 C 190.933594 242.792969 190.734375 243.5625 190.1875 243.996094 C 191.238281 247.222656 191.609375 250.578125 191.625 253.96875 C 191.632812 255.132812 191.554688 256.292969 191.441406 257.449219 C 192.382812 254.742188 193.179688 252 193.371094 249.082031 Z M 193.371094 249.082031 " fill-opacity="1" fill-rule="evenodd"/><g clip-path="url(#f44aba5996)"><path fill="#ffffff" d="M 198.464844 297.167969 L 184.417969 297.167969 L 184.417969 299.183594 C 184.417969 303.257812 183.394531 305.90625 181.355469 307.109375 C 179.316406 308.5 175.976562 309.195312 171.34375 309.195312 L 171.34375 311.976562 L 212.09375 311.976562 L 212.09375 309.195312 C 210.980469 309.195312 209.589844 309.101562 207.921875 308.917969 C 207.085938 308.820312 206.253906 308.6875 205.417969 308.5 C 204.863281 308.40625 204.492188 308.359375 204.304688 308.359375 C 202.265625 307.804688 200.78125 306.785156 199.855469 305.300781 C 198.925781 303.820312 198.464844 301.59375 198.464844 298.621094 Z M 184.417969 234.710938 L 198.464844 234.710938 L 198.464844 225.605469 L 209.453125 225.605469 C 213.164062 225.605469 216.3125 226.113281 218.910156 227.132812 C 221.410156 228.0625 223.171875 229.359375 224.191406 231.027344 C 225.308594 232.789062 226.1875 234.785156 226.839844 237.007812 L 228.367188 243.546875 L 231.707031 243.546875 L 230.871094 219.902344 L 152.289062 219.902344 L 151.59375 243.546875 L 154.792969 243.546875 C 155.8125 238.167969 157.15625 234.273438 158.824219 231.863281 C 160.585938 229.265625 162.71875 227.550781 165.222656 226.71875 C 168.003906 225.976562 171.34375 225.605469 175.238281 225.605469 L 184.417969 225.605469 Z M 184.417969 234.710938 " fill-opacity="1" fill-rule="nonzero"/></g><g clip-path="url(#4a7afddaaf)"><g clip-path="url(#566dbf3bbf)"><g clip-path="url(#130dccad12)"><path fill="#ffffff" d="M 72.035156 157.519531 L 93.6875 195.027344 C 105.628906 215.707031 132.164062 222.820312 152.847656 210.878906 L 147.566406 201.730469 C 131.929688 210.757812 111.863281 205.382812 102.835938 189.746094 L 86.460938 161.386719 L 114.820312 145.015625 L 109.539062 135.867188 Z M 110.152344 185.519531 L 98.003906 164.480469 L 119.046875 152.332031 L 124.328125 161.480469 L 112.433594 168.347656 L 119.300781 180.238281 C 123.085938 186.796875 131.503906 189.050781 138.058594 185.265625 L 143.339844 194.414062 C 131.738281 201.109375 116.851562 197.121094 110.152344 185.519531 Z M 110.152344 185.519531 " fill-opacity="1" fill-rule="nonzero"/></g></g></g></svg>