<svg xmlns="http://www.w3.org/2000/svg" xmlns:xlink="http://www.w3.org/1999/xlink" width="500" zoomAndPan="magnify" viewBox="0 0 375 374.999991" height="500" preserveAspectRatio="xMidYMid meet" version="1.0"><defs><clipPath id="1d071a949c"><path d="M 20.777344 20.53125 L 354.222656 20.53125 L 354.222656 354 L 20.777344 354 Z M 20.777344 20.53125 " clip-rule="nonzero"/></clipPath><clipPath id="2ce52e89ba"><path d="M 187.5 20.53125 C 95.421875 20.53125 20.777344 95.285156 20.777344 187.5 C 20.777344 279.714844 95.421875 354.46875 187.5 354.46875 C 279.578125 354.46875 354.222656 279.714844 354.222656 187.5 C 354.222656 95.285156 279.578125 20.53125 187.5 20.53125 Z M 187.5 20.53125 " clip-rule="nonzero"/></clipPath><clipPath id="09823bea34"><path d="M 47 47 L 328 47 L 328 328 L 47 328 Z M 47 47 " clip-rule="nonzero"/></clipPath><clipPath id="33dccff3d9"><path d="M 181.304688 32.203125 L 342.566406 177.035156 L 193.207031 343.339844 L 31.941406 198.503906 Z M 181.304688 32.203125 " clip-rule="nonzero"/></clipPath><clipPath id="652ec6a68f"><path d="M 209.203125 57.257812 L 314.667969 151.980469 C 322.066406 158.625 326.523438 167.9375 327.054688 177.871094 C 327.589844 187.800781 324.15625 197.539062 317.507812 204.9375 L 218.75 314.902344 C 212.101562 322.300781 202.789062 326.757812 192.859375 327.289062 C 182.925781 327.824219 173.191406 324.386719 165.792969 317.742188 L 60.328125 223.023438 C 52.925781 216.375 48.472656 207.0625 47.9375 197.132812 C 47.40625 187.203125 50.839844 177.464844 57.484375 170.066406 L 156.246094 60.101562 C 162.890625 52.703125 172.203125 48.246094 182.136719 47.714844 C 192.066406 47.179688 201.804688 50.613281 209.203125 57.257812 Z M 209.203125 57.257812 " clip-rule="nonzero"/></clipPath><clipPath id="7e4ad97a53"><path d="M 125 104.183594 L 184 104.183594 L 184 162 L 125 162 Z M 125 104.183594 " clip-rule="nonzero"/></clipPath><clipPath id="bd454d1fca"><path d="M 191 104.183594 L 250.230469 104.183594 L 250.230469 162 L 191 162 Z M 191 104.183594 " clip-rule="nonzero"/></clipPath><clipPath id="cc14e2de29"><path d="M 164 170 L 213 170 L 213 314.933594 L 164 314.933594 Z M 164 170 " clip-rule="nonzero"/></clipPath></defs><g clip-path="url(#1d071a949c)"><g clip-path="url(#2ce52e89ba)"><path fill="#000000" d="M 20.777344 20.53125 L 354.222656 20.53125 L 354.222656 353.976562 L 20.777344 353.976562 Z M 20.777344 20.53125 " fill-opacity="1" fill-rule="nonzero"/></g></g><g clip-path="url(#09823bea34)"><g clip-path="url(#33dccff3d9)"><g clip-path="url(#652ec6a68f)"><path fill="#ffffff" d="M 181.304688 32.203125 L 342.566406 177.035156 L 193.773438 342.710938 L 32.507812 197.875 Z M 181.304688 32.203125 " fill-opacity="1" fill-rule="nonzero"/></g></g></g><path fill="#000000" d="M 178.167969 165.917969 L 198.390625 165.917969 L 202.574219 148.097656 L 187.605469 130.273438 L 184.734375 133.691406 L 172.636719 148.097656 Z M 178.167969 165.917969 " fill-opacity="1" fill-rule="nonzero"/><g clip-path="url(#7e4ad97a53)"><path fill="#000000" d="M 136.894531 104.699219 L 134.910156 108.148438 L 125.011719 125.148438 L 156.417969 161.738281 L 183.941406 128.960938 Z M 136.894531 104.699219 " fill-opacity="1" fill-rule="nonzero"/></g><g clip-path="url(#bd454d1fca)"><path fill="#000000" d="M 238.347656 104.699219 L 191.332031 128.960938 L 218.859375 161.738281 L 250.230469 125.148438 Z M 238.347656 104.699219 " fill-opacity="1" fill-rule="nonzero"/></g><g clip-path="url(#cc14e2de29)"><path fill="#000000" d="M 192.523438 170.4375 L 178.167969 170.4375 L 164.023438 281.765625 L 184.734375 310.574219 L 187.605469 314.574219 L 212.535156 281.582031 L 198.390625 170.4375 Z M 192.523438 170.4375 " fill-opacity="1" fill-rule="nonzero"/></g></svg>