<svg xmlns="http://www.w3.org/2000/svg" xmlns:xlink="http://www.w3.org/1999/xlink" width="500" zoomAndPan="magnify" viewBox="0 0 375 374.999991" height="500" preserveAspectRatio="xMidYMid meet" version="1.0"><defs><clipPath id="7b630b756c"><path d="M 20.777344 20.53125 L 354.222656 20.53125 L 354.222656 354 L 20.777344 354 Z M 20.777344 20.53125 " clip-rule="nonzero"/></clipPath><clipPath id="a6b62f939c"><path d="M 187.5 20.53125 C 95.421875 20.53125 20.777344 95.285156 20.777344 187.5 C 20.777344 279.714844 95.421875 354.46875 187.5 354.46875 C 279.578125 354.46875 354.222656 279.714844 354.222656 187.5 C 354.222656 95.285156 279.578125 20.53125 187.5 20.53125 Z M 187.5 20.53125 " clip-rule="nonzero"/></clipPath><clipPath id="d23aa19924"><path d="M 47 47 L 328 47 L 328 328 L 47 328 Z M 47 47 " clip-rule="nonzero"/></clipPath><clipPath id="064b9a570a"><path d="M 181.304688 32.199219 L 342.570312 177.035156 L 193.207031 343.339844 L 31.945312 198.503906 Z M 181.304688 32.199219 " clip-rule="nonzero"/></clipPath><clipPath id="4554c367c1"><path d="M 209.203125 57.257812 L 314.667969 151.976562 C 322.070312 158.625 326.523438 167.9375 327.058594 177.867188 C 327.589844 187.800781 324.15625 197.535156 317.511719 204.933594 L 218.75 314.898438 C 212.105469 322.296875 202.792969 326.753906 192.859375 327.289062 C 182.929688 327.820312 173.191406 324.386719 165.792969 317.742188 L 60.328125 223.019531 C 52.929688 216.375 48.472656 207.0625 47.941406 197.132812 C 47.40625 187.199219 50.839844 177.464844 57.488281 170.0625 L 156.246094 60.101562 C 162.894531 52.699219 172.207031 48.246094 182.136719 47.710938 C 192.070312 47.179688 201.804688 50.613281 209.203125 57.257812 Z M 209.203125 57.257812 " clip-rule="nonzero"/></clipPath><clipPath id="1681e693fc"><path d="M 114.367188 129.027344 L 258.722656 129.027344 L 258.722656 214.679688 L 114.367188 214.679688 Z M 114.367188 129.027344 " clip-rule="nonzero"/></clipPath><clipPath id="5df08d19e1"><path d="M 222 133 L 303 133 L 303 215 L 222 215 Z M 222 133 " clip-rule="nonzero"/></clipPath><clipPath id="9b735a0862"><path d="M 265.460938 133.941406 L 302.964844 155.597656 L 259.660156 230.605469 L 222.152344 208.953125 Z M 265.460938 133.941406 " clip-rule="nonzero"/></clipPath><clipPath id="20945f776d"><path d="M 265.460938 133.941406 L 302.964844 155.597656 L 259.660156 230.605469 L 222.152344 208.953125 Z M 265.460938 133.941406 " clip-rule="nonzero"/></clipPath><clipPath id="c397fea8c8"><path d="M 265.460938 133.941406 L 302.964844 155.597656 L 259.660156 230.605469 L 222.152344 208.953125 Z M 265.460938 133.941406 " clip-rule="nonzero"/></clipPath><clipPath id="9294304a6d"><path d="M 151.578125 219.859375 L 231.9375 219.859375 L 231.9375 312.25 L 151.578125 312.25 Z M 151.578125 219.859375 " clip-rule="nonzero"/></clipPath><clipPath id="b75a712cd3"><path d="M 72 135 L 153 135 L 153 217 L 72 217 Z M 72 135 " clip-rule="nonzero"/></clipPath><clipPath id="d8822fa080"><path d="M 72.035156 157.519531 L 109.539062 135.867188 L 152.847656 210.878906 L 115.339844 232.53125 Z M 72.035156 157.519531 " clip-rule="nonzero"/></clipPath><clipPath id="21f166330c"><path d="M 109.539062 135.867188 L 72.035156 157.519531 L 115.339844 232.53125 L 152.847656 210.878906 Z M 109.539062 135.867188 " clip-rule="nonzero"/></clipPath><clipPath id="9abb9bfe1a"><path d="M 109.539062 135.867188 L 72.035156 157.519531 L 115.339844 232.53125 L 152.847656 210.878906 Z M 109.539062 135.867188 " clip-rule="nonzero"/></clipPath></defs><g clip-path="url(#7b630b756c)"><g clip-path="url(#a6b62f939c)"><path fill="#000000" d="M 20.777344 20.53125 L 354.222656 20.53125 L 354.222656 353.976562 L 20.777344 353.976562 Z M 20.777344 20.53125 " fill-opacity="1" fill-rule="nonzero"/></g></g><g clip-path="url(#d23aa19924)"><g clip-path="url(#064b9a570a)"><g clip-path="url(#4554c367c1)"><path fill="#ffffff" d="M 181.304688 32.199219 L 342.570312 177.035156 L 193.773438 342.710938 L 32.507812 197.875 Z M 181.304688 32.199219 " fill-opacity="1" fill-rule="nonzero"/></g></g></g><g clip-path="url(#1681e693fc)"><path fill="#000000" d="M 114.421875 129.027344 L 164.417969 214.679688 L 186.542969 176.566406 L 208.757812 214.679688 L 258.667969 129.027344 L 226.445312 129.027344 L 203.277344 168.898438 L 207.980469 177 L 231.144531 137.300781 L 244.386719 137.300781 L 208.757812 198.304688 L 191.332031 168.464844 L 214.328125 129.027344 L 204.75 129.027344 L 186.542969 160.277344 L 168.339844 129.027344 L 158.847656 129.027344 L 181.84375 168.464844 L 164.417969 198.304688 L 128.789062 137.300781 L 140.902344 137.300781 L 164.070312 177 L 168.859375 168.898438 L 145.605469 129.027344 Z M 114.421875 129.027344 " fill-opacity="1" fill-rule="nonzero"/></g><g clip-path="url(#5df08d19e1)"><g clip-path="url(#9b735a0862)"><g clip-path="url(#20945f776d)"><g clip-path="url(#c397fea8c8)"><path fill="#000000" d="M 302.964844 155.597656 L 281.3125 193.101562 C 269.371094 213.785156 242.835938 220.894531 222.152344 208.953125 L 227.433594 199.804688 C 243.070312 208.835938 263.136719 203.457031 272.164062 187.820312 L 288.539062 159.460938 L 260.179688 143.089844 L 265.460938 133.941406 Z M 264.847656 183.59375 L 276.996094 162.554688 L 255.953125 150.40625 L 250.671875 159.554688 L 262.566406 166.421875 L 255.699219 178.316406 C 251.914062 184.871094 243.496094 187.128906 236.941406 183.339844 L 231.660156 192.488281 C 243.261719 199.1875 258.148438 195.199219 264.847656 183.59375 Z M 264.847656 183.59375 " fill-opacity="1" fill-rule="nonzero"/></g></g></g></g><path fill="#000000" d="M 193.496094 249.132812 C 193.371094 248.902344 193.222656 248.664062 193.199219 248.605469 C 192.792969 247.703125 192.519531 246.726562 192.378906 245.746094 C 191.992188 243.066406 192.484375 240.566406 193.511719 238.082031 C 193.820312 237.332031 194.15625 236.597656 194.484375 235.855469 C 194.523438 235.765625 194.6875 235.21875 194.816406 235.214844 C 194.910156 235.207031 194.972656 236.003906 194.980469 236.070312 C 195.109375 237.066406 195.265625 238.066406 195.464844 239.050781 C 196.023438 241.792969 196.507812 244.625 195.929688 247.410156 C 195.734375 248.355469 195.347656 249.628906 194.433594 250.171875 C 193.871094 255.214844 191.652344 259.777344 190.128906 264.578125 C 190.347656 264.15625 190.574219 263.742188 190.816406 263.332031 C 192.957031 259.722656 195.957031 257.011719 199.695312 255.148438 C 200.503906 254.746094 201.320312 254.363281 202.148438 254.003906 C 202.246094 253.964844 202.832031 253.632812 202.917969 253.730469 C 203.046875 253.878906 202.570312 254.71875 202.507812 254.859375 C 201.980469 256.074219 201.40625 257.265625 200.871094 258.476562 C 199.15625 262.363281 196.074219 265.308594 192.507812 267.511719 C 191.613281 268.0625 190.144531 269.121094 188.964844 269.199219 C 188.183594 273.660156 188.410156 278.132812 189.363281 282.542969 C 189.386719 281.933594 189.425781 281.328125 189.472656 280.722656 C 189.671875 278.175781 190.050781 274.832031 191.652344 272.632812 C 191.523438 272.503906 191.414062 272.351562 191.335938 272.175781 C 190.976562 271.394531 191.320312 270.46875 192.105469 270.109375 C 192.886719 269.753906 193.816406 270.097656 194.175781 270.878906 C 194.53125 271.660156 194.1875 272.585938 193.40625 272.945312 C 193.144531 273.066406 192.867188 273.105469 192.601562 273.078125 C 190.992188 275.113281 190.6875 278.363281 190.496094 280.804688 C 190.46875 281.132812 190.445312 281.460938 190.425781 281.789062 C 191.074219 278.621094 192.292969 275.488281 194.320312 272.957031 C 194.597656 272.609375 196.097656 270.492188 196.71875 270.675781 C 196.878906 270.722656 196.683594 271.574219 196.667969 271.691406 C 196.539062 272.8125 196.53125 273.949219 196.535156 275.074219 C 196.554688 278.960938 195.628906 282.261719 193.285156 285.453125 C 192.609375 286.375 191.53125 286.984375 190.847656 287.863281 C 191.539062 290 192.277344 292.117188 192.976562 294.25 C 193.070312 293.941406 193.167969 293.632812 193.265625 293.328125 C 193.851562 291.488281 194.660156 289.753906 195.804688 288.195312 C 195.832031 288.15625 195.863281 288.125 195.898438 288.097656 C 195.875 288.054688 195.847656 288.007812 195.828125 287.960938 C 195.46875 287.175781 195.8125 286.25 196.597656 285.894531 C 197.378906 285.535156 198.308594 285.878906 198.664062 286.660156 C 199.023438 287.445312 198.679688 288.371094 197.894531 288.726562 C 197.492188 288.914062 197.046875 288.910156 196.660156 288.753906 C 196.652344 288.769531 196.640625 288.785156 196.632812 288.800781 C 195.554688 290.269531 194.796875 291.902344 194.242188 293.640625 C 194.046875 294.242188 193.863281 294.851562 193.6875 295.460938 C 193.664062 295.550781 193.683594 295.695312 193.683594 295.820312 C 193.683594 296 193.671875 296.164062 193.636719 296.28125 L 193.632812 296.296875 C 194.265625 298.34375 194.835938 300.414062 195.261719 302.527344 C 195.53125 303.855469 195.707031 305.195312 195.886719 306.535156 C 195.917969 306.777344 196.058594 307.257812 196.0625 307.640625 C 196.066406 307.914062 196.003906 308.152344 195.890625 308.320312 C 195.730469 308.554688 195.414062 308.613281 195.179688 308.457031 C 194.953125 308.300781 194.886719 307.996094 195.027344 307.765625 C 195.03125 307.734375 195.03125 307.527344 195.011719 307.402344 C 194.96875 307.121094 194.894531 306.835938 194.871094 306.671875 C 194.695312 305.355469 194.519531 304.035156 194.257812 302.730469 C 193.882812 300.863281 193.394531 299.035156 192.84375 297.222656 C 192.558594 296.992188 192.238281 296.761719 192.210938 296.742188 C 190.859375 295.800781 189.28125 295.09375 187.75 294.515625 C 184.144531 293.152344 181.585938 291.140625 180.304688 287.402344 C 180.109375 286.832031 179.242188 284.734375 179.644531 284.117188 C 179.671875 284.074219 180.421875 284.660156 180.476562 284.699219 C 181.433594 285.367188 182.375 286.050781 183.308594 286.753906 C 185.4375 288.367188 187.46875 290.054688 189.496094 291.792969 C 190.3125 292.488281 191.09375 293.113281 191.765625 293.84375 C 190.941406 291.355469 190.070312 288.882812 189.304688 286.367188 C 188.472656 283.625 187.890625 280.855469 187.628906 278.066406 C 187.328125 278.003906 186.804688 277.96875 186.613281 277.90625 C 185.691406 277.613281 184.8125 277.203125 183.976562 276.722656 C 180.425781 274.679688 177.917969 271.160156 176.617188 267.324219 C 176.191406 266.074219 175.820312 264.796875 175.589844 263.496094 C 175.554688 263.320312 175.332031 262.46875 175.585938 262.339844 C 175.714844 262.277344 176.257812 263.136719 176.324219 263.226562 C 177.082031 264.171875 178.003906 264.953125 178.871094 265.792969 C 181.601562 268.433594 184.371094 271.230469 186.453125 274.453125 C 186.289062 273.785156 186.121094 273.117188 185.933594 272.457031 C 185.09375 269.441406 184.144531 266.558594 182.28125 264.015625 C 182.277344 264.011719 182.269531 264 182.265625 263.992188 C 181.523438 264.222656 180.710938 263.875 180.378906 263.152344 C 180.023438 262.371094 180.367188 261.445312 181.152344 261.085938 C 181.933594 260.726562 182.859375 261.074219 183.21875 261.855469 C 183.457031 262.371094 183.386719 262.949219 183.089844 263.386719 C 183.09375 263.394531 183.101562 263.402344 183.109375 263.414062 C 185.046875 266.054688 186.046875 269.046875 186.921875 272.183594 C 187.117188 272.878906 187.296875 273.585938 187.46875 274.289062 C 187.5 271.832031 187.796875 269.371094 188.398438 266.914062 C 188.875 264.988281 189.519531 263.121094 190.195312 261.265625 C 190.179688 261.136719 190.171875 260.816406 190.128906 260.683594 C 189.988281 260.257812 189.824219 259.835938 189.628906 259.433594 C 189.078125 258.277344 188.359375 257.210938 187.640625 256.15625 C 185.28125 252.703125 183.59375 249.558594 183.261719 245.28125 C 183.1875 244.316406 183.160156 243.339844 183.253906 242.375 C 183.265625 242.257812 183.28125 241.511719 183.417969 241.445312 C 183.480469 241.417969 184.074219 242.4375 184.117188 242.503906 C 184.882812 243.621094 185.71875 244.695312 186.535156 245.777344 C 188.425781 248.265625 189.21875 251.050781 190.007812 254.027344 C 190.230469 254.867188 190.449219 255.648438 190.628906 256.40625 C 190.6875 255.617188 190.726562 254.828125 190.722656 254.035156 C 190.707031 250.753906 190.351562 247.503906 189.335938 244.378906 C 188.742188 244.378906 188.171875 244.042969 187.910156 243.46875 C 187.550781 242.6875 187.894531 241.761719 188.679688 241.402344 C 189.460938 241.042969 190.390625 241.386719 190.75 242.171875 C 191.054688 242.835938 190.851562 243.601562 190.300781 244.039062 C 191.359375 247.269531 191.730469 250.632812 191.746094 254.03125 C 191.753906 255.195312 191.675781 256.355469 191.5625 257.515625 C 192.507812 254.804688 193.304688 252.058594 193.496094 249.132812 Z M 193.496094 249.132812 " fill-opacity="1" fill-rule="evenodd"/><g clip-path="url(#9294304a6d)"><path fill="#000000" d="M 198.605469 297.308594 L 184.515625 297.308594 L 184.515625 299.324219 C 184.515625 303.40625 183.492188 306.058594 181.445312 307.265625 C 179.398438 308.65625 176.050781 309.355469 171.402344 309.355469 L 171.402344 312.140625 L 212.277344 312.140625 L 212.277344 309.355469 C 211.160156 309.355469 209.765625 309.261719 208.089844 309.078125 C 207.253906 308.980469 206.417969 308.847656 205.578125 308.65625 C 205.023438 308.566406 204.648438 308.515625 204.464844 308.515625 C 202.417969 307.960938 200.929688 306.941406 200 305.453125 C 199.070312 303.96875 198.605469 301.738281 198.605469 298.761719 Z M 184.515625 234.738281 L 198.605469 234.738281 L 198.605469 225.613281 L 209.625 225.613281 C 213.347656 225.613281 216.503906 226.125 219.113281 227.148438 C 221.621094 228.078125 223.390625 229.375 224.410156 231.050781 C 225.53125 232.8125 226.410156 234.8125 227.066406 237.039062 L 228.597656 243.589844 L 231.949219 243.589844 L 231.109375 219.902344 L 152.289062 219.902344 L 151.59375 243.589844 L 154.800781 243.589844 C 155.824219 238.203125 157.171875 234.300781 158.847656 231.886719 C 160.613281 229.285156 162.753906 227.566406 165.261719 226.730469 C 168.054688 225.988281 171.402344 225.613281 175.308594 225.613281 L 184.515625 225.613281 Z M 184.515625 234.738281 " fill-opacity="1" fill-rule="nonzero"/></g><g clip-path="url(#b75a712cd3)"><g clip-path="url(#d8822fa080)"><g clip-path="url(#21f166330c)"><g clip-path="url(#9abb9bfe1a)"><path fill="#000000" d="M 72.035156 157.519531 L 93.6875 195.027344 C 105.628906 215.707031 132.164062 222.820312 152.847656 210.878906 L 147.566406 201.730469 C 131.929688 210.757812 111.863281 205.382812 102.835938 189.746094 L 86.460938 161.386719 L 114.820312 145.015625 L 109.539062 135.867188 Z M 110.152344 185.519531 L 98.003906 164.480469 L 119.046875 152.332031 L 124.328125 161.480469 L 112.433594 168.347656 L 119.300781 180.238281 C 123.085938 186.796875 131.503906 189.050781 138.058594 185.265625 L 143.339844 194.414062 C 131.738281 201.109375 116.851562 197.121094 110.152344 185.519531 Z M 110.152344 185.519531 " fill-opacity="1" fill-rule="nonzero"/></g></g></g></g></svg>